<svg xmlns="http://www.w3.org/2000/svg" viewBox="0 0 288 288"><defs><style>.a{fill:#000000}</style></defs><title>circleArtboard 3</title><path class="a" d="M274.73 233.25H66.56v-31.6l18.1-35.8-37.2-116.63-38-18A6.77 6.77 0 0 1 15.31 19l43.27 20.5L99.24 167 80.1 204.88v14.83h194.63a6.77 6.77 0 1 1 0 13.54z"/><path class="a" d="M252.86 169.82H91.95v-6.77h155.58l22.91-94.98H59.5V61.3h219.53l-26.17 108.52zM99.64 274a18.67 18.67 0 1 1 18.67-18.66A18.68 18.68 0 0 1 99.64 274zm0-30.56a11.9 11.9 0 1 0 11.9 11.9 11.91 11.91 0 0 0-11.9-11.92zM247.88 274a18.67 18.67 0 1 1 18.66-18.66A18.69 18.69 0 0 1 247.88 274zm0-30.56a11.9 11.9 0 1 0 11.89 11.9 11.92 11.92 0 0 0-11.89-11.92z"/><path class="a" d="M103.76 64.68h6.77v101.75h-6.77zM73.92 64.68h6.77v55.5h-6.77zM133.6 64.68h6.77v101.75h-6.77zM163.44 64.68h6.77v101.75h-6.77zM193.27 64.68h6.77v101.75h-6.77zM223.11 64.68h6.77v101.75h-6.77zM252.95 64.68h6.77v75.81h-6.77z"/><path class="a" d="M66.17 87.16h203.52v6.77H66.17zM75.73 112.17h187.43v6.77H75.73zM83.7 137.18h175.15v6.77H83.7z"/></svg>
