<svg xmlns="http://www.w3.org/2000/svg" viewBox="0 0 288 288"><defs><style>.a{fill:#231f20}</style></defs><title>circleArtboard 6</title><path class="a" d="M221.75 199.09a16.85 16.85 0 0 1-10-3.72c-5.25-3.93-21.71-20.38-22.41-21.08a3 3 0 0 1 4.24-4.24c.17.17 16.86 16.85 21.77 20.52 2 1.53 7.16 4.62 10.84.42a6.34 6.34 0 0 0 0-8.55l-63.71-61.69-23.89.46c-3.89 5.8-15.16 22.5-18.07 25.22-3.94 3.69-13 8.56-22 3.38-9.64-5.54-5.17-21.19-5-21.85l.11-.3c.1-.25 10.35-25.13 16.45-39.37a21.34 21.34 0 0 1 23.61-13.12h86a3 3 0 0 1 0 6h-86.57l-.31-.06c-.48-.1-12.08-2.32-17.16 9.55-5.82 13.57-15.43 36.87-16.35 39.11-.34 1.27-2.92 11.87 2.24 14.83 7.5 4.31 14.65-2.26 14.95-2.54 2.06-1.94 12.16-16.66 18-25.48l.87-1.31 29.52-.57 65.79 63.71c2.51 2.86 5.74 10 0 16.54a11.68 11.68 0 0 1-8.92 4.14z"/><path class="a" d="M197.81 211.3a15 15 0 0 1-9.06-3.23l-.23-.22-21.77-22a3 3 0 1 1 4.26-4.22l21.64 21.88c1.14.87 5.88 4 10.43-.68 2.67-2.72 4.66-6.76-.79-16.08a3 3 0 1 1 5.17-3c2.11 3.59 8.51 14.54-.1 23.31a13.1 13.1 0 0 1-9.55 4.24z"/><path class="a" d="M176.75 223.58a15 15 0 0 1-9.06-3.23l-.23-.22-21.77-22a3 3 0 1 1 4.31-4.23l21.64 21.88c1.14.87 5.87 3.95 10.43-.68 3.35-3.42 3.55-7.42.66-13.38a3 3 0 1 1 5.4-2.62c4 8.29 3.43 14.89-1.78 20.2a13.1 13.1 0 0 1-9.6 4.28z"/><path class="a" d="M153.26 233.89a14.93 14.93 0 0 1-9-3.23l-.24-.22-5.1-5.16a3 3 0 0 1 4.26-4.22l5 5c1.13.87 5.87 3.95 10.42-.68 3.35-3.42 3.55-7.42.66-13.38a3 3 0 1 1 5.4-2.61c4 8.28 3.44 14.88-1.77 20.19a13.12 13.12 0 0 1-9.63 4.31zM72.3 199.75a14 14 0 0 1-10.43-4.64l-.41-.44a14.06 14.06 0 0 1 1-19.8l12.25-11a14.06 14.06 0 0 1 19.8 1.05l.4.45a14.06 14.06 0 0 1-1 19.8l-12.24 11a14 14 0 0 1-9.37 3.58zm-6-8.65a8 8 0 0 0 11.33.6l12.24-11a8.05 8.05 0 0 0 .6-11.32l-.41-.45a8.05 8.05 0 0 0-11.32-.6l-12.25 11a8 8 0 0 0-.59 11.32z"/><path class="a" d="M91.19 213.38h-.77a13.92 13.92 0 0 1-9.68-4.61l-.4-.45a14 14 0 0 1 1-19.8l8.74-7.86a14.06 14.06 0 0 1 19.8 1.05l.4.45a14 14 0 0 1-1 19.8l-8.74 7.86a13.91 13.91 0 0 1-9.35 3.56zm8.29-30.32a8 8 0 0 0-5.35 2L85.4 193a8 8 0 0 0-.6 11.33l.4.45a8.06 8.06 0 0 0 11.33.6l8.73-7.86a8 8 0 0 0 .6-11.33l-.4-.45a8 8 0 0 0-5.54-2.63z"/><path class="a" d="M110.23 224.92h-.72a13.09 13.09 0 0 1-9.14-4.35l-.38-.42a13.25 13.25 0 0 1 1-18.69l6-5.43a13.26 13.26 0 0 1 18.7 1l.37.41a13.26 13.26 0 0 1-1 18.7l-6 5.43a13.14 13.14 0 0 1-8.83 3.35zm-5.4-8.38a7.28 7.28 0 0 0 10.22.54l6-5.43a7.24 7.24 0 0 0 .54-10.22l-.37-.42a7.28 7.28 0 0 0-10.22-.54l-6 5.43a7.28 7.28 0 0 0-.54 10.22z"/><path class="a" d="M127.66 234.82a11.78 11.78 0 0 1-8.78-3.91l-.32-.36a11.84 11.84 0 0 1 .88-16.67l5.09-4.58a11.83 11.83 0 0 1 16.67.88l.32.36a11.81 11.81 0 0 1-.88 16.67l-5.09 4.58a11.73 11.73 0 0 1-7.89 3.03zm-4.32-7.92a5.81 5.81 0 0 0 8.2.43l5.09-4.58a5.8 5.8 0 0 0 .43-8.2l-.32-.35a5.83 5.83 0 0 0-8.2-.44l-5.09 4.58a5.84 5.84 0 0 0-.43 8.2zM70.29 174.9a3 3 0 0 1-1.79-.6L43 155.23a3 3 0 0 1 3.59-4.81l25.55 19.07a3 3 0 0 1-1.8 5.41zM218.333 170.172l24.58-19.636 3.744 4.688-24.58 19.636zM115.87 87.46h-.09L61.1 86a3 3 0 1 1 .16-6L116 81.46a3 3 0 0 1-.08 6z"/><path class="a" d="M31 165.65a12 12 0 0 1-3.33-.48l-12.16-3.56a11.86 11.86 0 0 1-8-14.72l22.76-78.12a11.87 11.87 0 0 1 14.72-8l12.16 3.56A11.86 11.86 0 0 1 65.21 79l-22.87 78.11A11.9 11.9 0 0 1 31 165.65zm-1.65-6.24a5.88 5.88 0 0 0 7.28-4l22.82-78.1a5.87 5.87 0 0 0-4-7.27l-12.14-3.56a5.86 5.86 0 0 0-7.28 4l-22.87 78.09a5.89 5.89 0 0 0 4 7.28zM254.05 163.18a11.89 11.89 0 0 1-11.37-8.54l-22.86-78.11a11.87 11.87 0 0 1 8.05-14.72L240 58.25a11.89 11.89 0 0 1 14.72 8l22.87 78.12a11.86 11.86 0 0 1-8.06 14.72l-12.13 3.61a12 12 0 0 1-3.35.48zm2.51-3.36zm-13.2-96a5.93 5.93 0 0 0-1.65.24l-12.16 3.56a5.88 5.88 0 0 0-4 7.27L248.44 153a5.86 5.86 0 0 0 7.28 4l12.16-3.56a5.87 5.87 0 0 0 4-7.27L249 68a5.88 5.88 0 0 0-5.64-4.23z"/><path class="a" d="M45.78 90.39a9.81 9.81 0 1 1 9.8-9.81 9.82 9.82 0 0 1-9.8 9.81zm0-13.61a3.81 3.81 0 1 0 3.8 3.8 3.81 3.81 0 0 0-3.8-3.8zM239.55 88.37a9.81 9.81 0 1 1 9.8-9.8 9.81 9.81 0 0 1-9.8 9.8zm0-13.61a3.81 3.81 0 1 0 3.8 3.81 3.81 3.81 0 0 0-3.8-3.81z"/></svg>