<svg xmlns="http://www.w3.org/2000/svg" viewBox="0 0 288 288"><defs><style>.a{fill:#231f20}</style></defs><title>circleArtboard 4</title><path class="a" d="M53.25 146.73L49.13 142l-.53-.55a65.3 65.3 0 0 1-20.46-47.71A65.85 65.85 0 0 1 139.38 46l5.51 5.24 5.5-5.24a65.86 65.86 0 0 1 94.79 91.28l-8.11 9.39h21.09a81.83 81.83 0 0 0-113.27-117A81.85 81.85 0 0 0 12.16 93.74a80.93 80.93 0 0 0 19.49 53zM214.07 173.3l-68.74 79.58-68.98-79.52H55.2l90.16 103.94 89.82-104h-21.11z"/><path class="a" d="M150.84 187.13h-.08a4.43 4.43 0 0 1-4.31-3.6l-16.21-82.21-13 47.15a4.48 4.48 0 0 1-8.45.51L104 137.39l-8.35 23.06a4.48 4.48 0 0 1-4.2 3H18.38a3.36 3.36 0 1 1 0-6.71h71.54l9.78-27a4.47 4.47 0 0 1 8.34-.18l4.49 10.9 13.76-50a4.47 4.47 0 0 1 8.69.32L151 172l9.05-39.38a4.47 4.47 0 0 1 8.43-.84l4.11 9.09 9.41-34.82a4.47 4.47 0 0 1 8.75.62l6.25 50h71.27a3.35 3.35 0 1 1 0 6.7H195a4.48 4.48 0 0 1-4.44-3.91l-5.08-40.65-8.06 29.81a4.47 4.47 0 0 1-8.38.68l-4-8.73-9.91 43.12a4.44 4.44 0 0 1-4.29 3.44z"/></svg>