<svg xmlns="http://www.w3.org/2000/svg" viewBox="0 0 288 288"><defs><style>.a{fill:#231f20}</style></defs><title>circleArtboard 1</title><path class="a" d="M259.34 248H32.5V91.37h226.84zM38.2 242.31h215.44V97.07H38.2zM201.57 283.18H89.17a6.82 6.82 0 0 1-6.81-6.81v-6.71h127.12v5.6a7.92 7.92 0 0 1-7.91 7.92zm-113.51-7.82v1a1.11 1.11 0 0 0 1.11 1.11h112.4a2.22 2.22 0 0 0 2.21-2.12z"/><path class="a" d="M81.88 168.18a10.27 10.27 0 0 1-1.57-.11A10.77 10.77 0 1 1 90.48 151a10.76 10.76 0 0 1-8.6 17.21zm0-15.84a5.08 5.08 0 1 0 4.06 2 5.06 5.06 0 0 0-4.09-2zM206.69 168.18A10.77 10.77 0 1 1 215.3 151a10.76 10.76 0 0 1-8.61 17.21zm0-15.84a5.07 5.07 0 1 0 4.07 2 5.09 5.09 0 0 0-4.09-2zM114.18 187.34a10.76 10.76 0 1 1 8.62-17.21 10.76 10.76 0 0 1-8.61 17.21zm0-15.83a5.05 5.05 0 1 0 4.08 2 5 5 0 0 0-3.34-2 4.53 4.53 0 0 0-.77 0zM175.82 187.35a10.25 10.25 0 0 1-1.56-.12 10.77 10.77 0 1 1 10.17-17.1 10.78 10.78 0 0 1-8.61 17.22zm0-15.84a5.06 5.06 0 0 0-4.06 8.1 5.07 5.07 0 0 0 7.09 1 5.08 5.08 0 0 0 1-7.1 5.05 5.05 0 0 0-4.05-2zM143 200.9a10.25 10.25 0 0 1-1.56-.12 10.67 10.67 0 0 1-7.09-4.21 10.78 10.78 0 0 1 2.19-15.07 10.77 10.77 0 1 1 6.46 19.4zm0-15.84a5 5 0 1 0 .74.05 4.6 4.6 0 0 0-.74-.05zM143 28.48a11.69 11.69 0 0 1-1.56-.11 10.8 10.8 0 1 1 1.56.11zm0-15.84a5.05 5.05 0 0 0-3 1 5.07 5.07 0 0 0 6 8.13 5.07 5.07 0 0 0-2.3-9.08 6.13 6.13 0 0 0-.7-.05zM206.69 33.86a10.77 10.77 0 1 1 1.53-21.43 10.77 10.77 0 0 1-1.53 21.43zm0-15.84a5.07 5.07 0 1 0 5 5.8 5.05 5.05 0 0 0-4.29-5.74 4.52 4.52 0 0 0-.74-.08zM238 61.18A10.77 10.77 0 1 1 246.66 44a10.78 10.78 0 0 1-2.19 15 10.66 10.66 0 0 1-6.47 2.18zm0-15.84a5 5 0 0 0-3 1 5.07 5.07 0 1 0 7.09 1 5 5 0 0 0-3.33-2 4.71 4.71 0 0 0-.76 0zM175.81 43.58a10.77 10.77 0 1 1 8.62-17.21 10.79 10.79 0 0 1-2.18 15.07 10.67 10.67 0 0 1-6.44 2.14zm0-15.83a5.07 5.07 0 1 0 4.06 2 5.09 5.09 0 0 0-4.07-2zM94.07 57a10.47 10.47 0 0 1-1.57-.12 10.6 10.6 0 1 1 1.57.12zm0-15.84a5 5 0 0 0-3 1 5.08 5.08 0 0 0-1 7.1A5.07 5.07 0 1 0 94 41.12z"/><path class="a" d="M109.1 94.22h-5.71v-32.8h36.75v-37.6h5.7v43.31H109.1v27.09zM84.7 149.31H79v-23.29h24.39v-17.59h5.71v23.29H84.7v17.59z"/><path class="a" d="M245.69 221.88H45.87V104.53h199.82zm-194.12-5.7H240V110.23H51.57zM70.61 94.22h-5.7V43.33h23.75v5.71H70.61v45.18z"/><path class="a" d="M117.02 168.66h-5.71v-49.27h-46.4v-12.01h5.7v6.31h46.41v54.97zM167.38 94.22h-5.7V45.9h42.14V31.01h5.71V51.6h-42.15v42.62zM145.84 182.22h-5.7v-40.33h21.54v-33.46h5.7v39.16h-21.54v34.63z"/><path class="a" d="M132.85 94.22h-5.7V73.14h108.03V57.86h5.7v20.99H132.85v15.37zM178.65 168.66h-5.7V130.8h50.51v-10.45h-96.31v-11.92h5.7v6.21h96.31v21.86h-50.51v32.16z"/><path class="a" d="M209.53 94.22h-5.71V65.54h-30.87V41.81h5.7v18.03h30.88v34.38zM203.82 107.38h5.7v42.12h-5.7zM187.54 275.36h-84.72l5.69-30.72 5.61 1.04-4.45 23.98h70.82l-5.12-23.9 5.57-1.2 6.6 30.8z"/></svg>