<svg xmlns="http://www.w3.org/2000/svg" viewBox="0 0 288 288"><defs><style>.a{fill:#000000}</style></defs><title>Global</title><path class="a" d="M144.34 279.15C69.66 279.15 8.9 218.39 8.9 143.71S69.66 8.26 144.34 8.26 279.79 69 279.79 143.71 219 279.15 144.34 279.15zm0-258.19a122.75 122.75 0 1 0 122.75 122.75A122.89 122.89 0 0 0 144.34 21z"/><path class="a" d="M144.34 271.39c-29.57 0-52.74-57.09-52.74-130s23.17-130 52.74-130 52.74 57.09 52.74 130-23.16 130-52.74 130zm0-253.6C119.2 17.79 98 74.4 98 141.41S119.2 265 144.34 265s46.39-56.61 46.39-123.63-21.24-123.58-46.39-123.58z"/><path class="a" d="M144.34 271.39c-52.91 0-95.95-58.31-95.95-130s43-130 96-130 96 58.31 96 130-43.14 130-96.05 130zm0-253.6c-49.4 0-89.6 55.46-89.6 123.62S94.94 265 144.34 265 234 209.58 234 141.41 193.75 17.79 144.34 17.79z"/><path class="a" d="M15.25 158.24h258.19v6.35H15.25zM28.78 199.06H259.9v6.35H28.78zM15.25 117.42h258.19v6.35H15.25zM61.26 239.87h166.16v6.35H61.26zM31.83 76.61h225.04v6.35H31.83zM68.47 35.79h151.74v6.35H68.47z"/><path class="a" d="M141.17 14.61h6.35v253.6h-6.35z"/></svg>
