<svg xmlns="http://www.w3.org/2000/svg" viewBox="0 0 288 288"><defs><style>.a{fill:#000000}</style></defs><title>Thumbprint</title><path class="a" d="M73.91 241.48a4.6 4.6 0 0 1-.88-9.12c.7-.14 58.15-12 77.86-62.54a4.6 4.6 0 0 1 8.58 3.34c-21.6 55.39-82.11 67.74-84.68 68.24a4.37 4.37 0 0 1-.88.08z"/><path class="a" d="M93.91 258.82a4.61 4.61 0 0 1-1.42-9c56.74-18.43 77.56-65.66 77.74-66.12s.36-.93.63-1.57c3.68-8.85 7.47-21.42-2-28.44-5-3.73-9.86-4.95-15.23-3.85a16.83 16.83 0 0 0-11.63 9.52c-23.47 50.51-79.82 62-82.2 62.45a4.61 4.61 0 0 1-1.77-9c.54-.11 54.17-11.12 75.62-57.3a26 26 0 0 1 18.12-14.65c7.92-1.63 15.52.22 22.59 5.49 10.8 8 12.47 21.28 5 39.36-.22.51-.4.94-.52 1.26-4 10.71-30 54.25-83.52 71.65a4.69 4.69 0 0 1-1.41.2z"/><path class="a" d="M199.61 254.36a4.59 4.59 0 0 1-4.17-2.66c-10.3-22.09-5.8-36.08-1-50.88 2.79-8.68 5.67-17.66 6.41-29.61 1.86-30.07-22.13-40.68-23.15-41.12l-.4-.19c-1.25-.66-31.3-16.09-54.12 21.26-26.4 43.22-71.59 48.08-73.5 48.26a4.6 4.6 0 0 1-.9-9.16c.65-.07 42.67-4.82 66.54-43.9 21.9-35.84 52.81-31.82 66.23-24.63 3.09 1.42 30.65 15.19 28.5 50-.81 13.12-4 23.08-6.84 31.87-4.74 14.72-8.16 25.35.62 44.17a4.6 4.6 0 0 1-4.18 6.55z"/><path class="a" d="M119.22 270.67a4.61 4.61 0 0 1-1.79-8.85c.23-.1 23.23-9.89 37.74-24a19 19 0 0 1 17.65-4.95 18.69 18.69 0 0 1 13.45 11.94A67.16 67.16 0 0 1 189 255a4.61 4.61 0 0 1-9.06 1.71 58.4 58.4 0 0 0-2.35-8.79 9.39 9.39 0 0 0-6.86-6.08 9.85 9.85 0 0 0-9.14 2.57c-15.78 15.39-39.6 25.51-40.6 25.94a4.72 4.72 0 0 1-1.77.32zM96.06 72.63a4.6 4.6 0 0 1-3.26-7.85c.48-.48 12-11.85 32.88-19.63 19.17-7.15 50.26-12.48 89.48 2.62a4.61 4.61 0 0 1-3.31 8.6c-29.16-11.23-56.93-12.16-82.54-2.75-19.16 7-29.9 17.57-30 17.68a4.61 4.61 0 0 1-3.25 1.33zM46.53 172.13a30.8 30.8 0 0 1-5.4-.41 4.61 4.61 0 0 1 1.75-9.05c1.43.26 33.79 5.45 61.76-45 15.44-27.87 43.22-41.77 76.24-38.15 32.55 3.57 61.43 23.9 68.66 48.35a4.61 4.61 0 0 1-8.84 2.61c-6.22-21-31.8-38.62-60.83-41.81s-53.62 9-67.18 33.46c-24.9 44.95-54.24 50-66.16 50z"/><path class="a" d="M217.46 239.6a4.61 4.61 0 0 1-4.58-4.15c-1.44-14.3 1-24.55 3.64-35.4 2.72-11.32 5.53-23 4.53-41.39-1.41-25.88-17.29-44.23-42.47-49.09-18.56-3.58-36.26 4.57-36.44 4.65a4.6 4.6 0 1 1-3.9-8.34c.83-.39 20.62-9.5 42.09-5.36 29.6 5.71 48.26 27.26 49.92 57.64 1.07 19.71-2 32.64-4.78 44-2.52 10.51-4.71 19.58-3.42 32.33a4.62 4.62 0 0 1-4.13 5.05zM245.13 202a5.46 5.46 0 0 1-.58 0 4.6 4.6 0 0 1-4-5.14c0-.34 4.1-33.88-6.41-51.81a4.61 4.61 0 0 1 8-4.65c12.09 20.64 7.79 56.11 7.6 57.61a4.61 4.61 0 0 1-4.61 3.99z"/><path class="a" d="M42 147.26a4.61 4.61 0 1 1 0-9.21c24.32 0 39.22-25.89 45.58-37A56.76 56.76 0 0 1 90.72 96c1.51-2.15 23.5-32.67 60.44-38.2 47.46-7.1 80.2 18.29 81.57 19.37a4.61 4.61 0 1 1-5.73 7.24c-.5-.39-31.27-24-74.49-17.49-33.59 5-53.46 33.21-54.29 34.41l-.13.18c-.48.64-1.47 2.36-2.52 4.19-7.14 12.43-23.9 41.56-53.57 41.56z"/><path class="a" d="M44.87 124.89a4.61 4.61 0 0 1-.81-9.14c.9-.17 20.23-4.24 34.18-35.83a4.6 4.6 0 1 1 8.42 3.72c-16.12 36.5-40 41-41 41.18a4.22 4.22 0 0 1-.79.07zM59 83.77a4.55 4.55 0 0 1-2.16-.54A4.61 4.61 0 0 1 54.9 77c.33-.63 8.34-15.46 26-29.95 16.3-13.34 44.22-28.89 84.9-27.18a4.61 4.61 0 0 1-.39 9.21C93.31 26 63.33 80.77 63 81.33a4.61 4.61 0 0 1-4 2.44zM232.56 229.28a5.09 5.09 0 0 1-.77-.06 4.6 4.6 0 0 1-3.77-5.31l2.53-15a4.6 4.6 0 1 1 9.08 1.53l-2.53 15a4.61 4.61 0 0 1-4.54 3.84z"/></svg>
