<svg xmlns="http://www.w3.org/2000/svg" viewBox="0 0 493.18 130.83"><defs><style>.a{fill:#f15d22}.b{fill:#54301a}</style></defs><title>Artboard 2</title><path class="a" d="M384.46 0s-2.73 10 5.54 19.62c10.69 12.47 10.76 21.35 6.71 28.27-5.6 9.65-18.05 13.23-24.08-.75 0 0-3-8.88 4.08-18.34 0 0-3.83 23.1 10 19.95 2.52-.57 10.05-9.41 2.15-19.95-4.96-6.66-15.46-15.9-4.4-28.8z"/><path class="b" d="M8.72 57.32l15.63 36.09L40 57.32l8.72 45.45h-4.9l-5.5-29.09h-.11l-13.86 30.85-13.8-30.85h-.11L4.9 102.77H0zm93.86 24.01A22.41 22.41 0 1 1 80.17 59a22.29 22.29 0 0 1 22.41 22.33zm-40-.06a17.62 17.62 0 1 0 17.59-17.79 17.78 17.78 0 0 0-17.62 17.79zm52.19-21.5h8.1c6.44 0 11.69.86 16.76 5.19 4.9 4.22 7.13 10 7.13 16.37a20.74 20.74 0 0 1-7 16c-5.13 4.56-10.26 5.42-17 5.42h-8zM123 98.32c5.25 0 9.64-.74 13.57-4.45a17.58 17.58 0 0 0-.23-25.49c-3.93-3.48-8.27-4.16-13.34-4.16h-3.48v34.1zm40.8-12.95c0 3.19-.11 6.84 1.88 9.58a11.09 11.09 0 0 0 8.67 4.11 11.38 11.38 0 0 0 8.44-3.82c2.28-2.74 2.11-6.5 2.11-9.86V59.77h4.79v26.92c0 4.68-.34 8.38-3.76 11.92a15.82 15.82 0 0 1-11.58 4.9 16.09 16.09 0 0 1-11.12-4.39c-3.76-3.59-4.22-7.53-4.22-12.43V59.77h4.79zm59.59-17.22c-1.71-3-3.76-4.68-7.41-4.68-3.82 0-7.13 2.74-7.13 6.67 0 3.71 3.82 5.42 6.73 6.73l2.85 1.25c5.59 2.45 10.32 5.25 10.32 12.09a13.28 13.28 0 0 1-13.51 13.29c-6.9 0-12-4.45-13.4-11.12l4.68-1.31c.63 4.39 4 8 8.61 8s8.87-3.55 8.87-8.39c0-5-3.93-6.73-7.93-8.55L213.41 81c-5-2.28-9.35-4.85-9.35-11 0-6.67 5.65-10.95 12-10.95a12.34 12.34 0 0 1 11.12 6.67zm41.33-8.38h8.1c6.44 0 11.69.86 16.76 5.19 4.9 4.22 7.13 10 7.13 16.37a20.74 20.74 0 0 1-7 16c-5.13 4.56-10.26 5.42-17 5.42h-8zM273 98.32c5.25 0 9.64-.74 13.57-4.45a17.57 17.57 0 0 0-.23-25.49c-3.93-3.48-8.27-4.16-13.34-4.16h-3.48v34.1zm36.08-38.55h22.29v4.45h-17.5V77h17v4.45h-17v16.87h17.5v4.45h-22.29zm55.65 8.38c-1.71-3-3.76-4.68-7.41-4.68-3.82 0-7.13 2.74-7.13 6.67 0 3.71 3.82 5.42 6.73 6.73l2.85 1.25c5.59 2.45 10.32 5.25 10.32 12.09a13.28 13.28 0 0 1-13.51 13.29c-6.9 0-12-4.45-13.4-11.12l4.68-1.31c.63 4.39 4 8 8.61 8s8.84-3.54 8.84-8.38c0-5-3.93-6.73-7.93-8.55L354.75 81c-5-2.28-9.35-4.85-9.35-11 0-6.67 5.65-10.95 12-10.95a12.34 12.34 0 0 1 11.12 6.67zm22.97 34.62h-4.79v-43h4.79zm54.4-21.62c.11 5.82-.51 10.61-4.45 15.17a21.24 21.24 0 0 1-15.91 7.18A22.24 22.24 0 1 1 422 59c7.53 0 13.63 3.36 18.19 9.29l-3.48 3.25c-3.59-5.07-8.44-8.1-14.77-8.1-9.81 0-17.56 8.27-17.56 18a17.32 17.32 0 0 0 5 12.15c3.14 3.14 7.7 5.47 12.2 5.47 7.47 0 15.34-5.47 15.34-13.46h-12.73v-4.45zm12.76-23.2l33.53 35.13V59.77h4.79v44.93l-33.53-35.06v33.13h-4.79zm-57.65 67.76h-.91v-14.33h.91zm3.86-7.41a2.88 2.88 0 0 1 2.6-1.56c2.26 0 2.89 1.41 2.89 3.67v5.3h-.85v-5.3c0-1.58-.19-2.87-2.11-2.87-2.2 0-2.56 2.05-2.56 3.84v4.33h-.85v-8.78h.85zm15.17.7a4 4 0 0 0-3.1-1.42 3.78 3.78 0 0 0 0 7.56 4.22 4.22 0 0 0 3.23-1.58v1.16a4.85 4.85 0 0 1-3.19 1.22 4.58 4.58 0 0 1 0-9.16 4.6 4.6 0 0 1 3.06 1.08zm10.65 2.32a4.59 4.59 0 1 1-4.62-4.58 4.53 4.53 0 0 1 4.62 4.58zm-8.32 0a3.73 3.73 0 1 0 3.65-3.8 3.72 3.72 0 0 0-3.65 3.82zm11.25-3.25a2 2 0 0 1 1.9-1.33 2.23 2.23 0 0 1 .93.21l-.46.76a1.19 1.19 0 0 0-.61-.17c-1.92 0-1.8 2.39-1.8 3.69v4.48H429v-8.78h.85zm5.28.43a3.93 3.93 0 0 1 3.34-1.77 4.33 4.33 0 0 1 4.33 4.65 4.2 4.2 0 0 1-4.29 4.5 4 4 0 0 1-3.38-1.71v6.65h-.85v-13.89h.85zm-.06 3a3.4 3.4 0 0 0 3.5 3.59 3.5 3.5 0 0 0 3.42-3.69 3.61 3.61 0 0 0-3.46-3.88c-2.25.02-3.5 1.88-3.5 3.99zm18.16-.18a4.59 4.59 0 1 1-4.62-4.58 4.53 4.53 0 0 1 4.62 4.58zm-8.32 0a3.73 3.73 0 1 0 3.65-3.8 3.72 3.72 0 0 0-3.65 3.82zm11.24-3.25a2 2 0 0 1 1.9-1.33 2.23 2.23 0 0 1 .93.21l-.46.76a1.19 1.19 0 0 0-.61-.17c-1.92 0-1.8 2.39-1.8 3.69v4.48h-.85v-8.78h.85zm12.14 7.64h-.86v-1.58a3.93 3.93 0 0 1-3.4 1.77 4.32 4.32 0 0 1-4.33-4.64 4.21 4.21 0 0 1 4.29-4.52 4 4 0 0 1 3.38 1.71v-1.52h.86zm-7.71-4.45a3.59 3.59 0 0 0 3.45 3.84c2.24 0 3.46-1.82 3.46-3.93a3.44 3.44 0 0 0-3.51-3.63 3.58 3.58 0 0 0-3.41 3.72zm11.58 4.45h-.86v-8h-1v-.8h1v-3.13h.86v3.13h1.54v.8h-1.54zm3.02-4.32a3.42 3.42 0 0 0 3.51 3.71 3.51 3.51 0 0 0 3.1-2l.72.42a4.43 4.43 0 1 1-3.93-6.78c2.66 0 4.24 2.13 4.22 4.65zm6.76-.8a3.4 3.4 0 0 0-6.76 0zm9.78 3.54a3.93 3.93 0 0 1-3.34 1.77 4.32 4.32 0 0 1-4.33-4.64 4.21 4.21 0 0 1 4.29-4.52 4 4 0 0 1 3.38 1.71V110h.86v15.67h-.86zm.06-3a3.44 3.44 0 0 0-3.51-3.63 3.8 3.8 0 0 0 .06 7.56c2.23.04 3.45-1.79 3.45-3.89z"/></svg>