<svg xmlns="http://www.w3.org/2000/svg" viewBox="0 0 500 500"><defs><style>.a{fill:#d2d2d1}.b{fill:#fff}</style></defs><title>Artboard 1</title><path class="a" d="M0 0h500v500H0z"/><path class="b" d="M301.82 105.68s5.12 9 17.8 10c16.38 1.26 22.7 7.49 24.73 15.24 2.87 10.79-3.41 22.12-17.55 16.5 0 0-8.38-4.18-10.09-15.85 0 0 13.62 19 21.2 7 1.37-2.19.45-13.76-12.59-15.62-8.24-1.22-22.2-.33-23.5-17.27zM76.67 411.89l36.57 14.47-14.44-36.61 38.3 26-3.47 3.47-24.47-16.65-.08.08 12 31.61-31.55-12.09-.08.08 16.65 24.47-3.47 3.47zM160 362.5a22.41 22.41 0 1 1-31.61.08 22.29 22.29 0 0 1 31.61-.08zm-28.35 28.27a17.62 17.62 0 1 0-.12-25 17.78 17.78 0 0 0 .13 25zm21.74-52.14l5.73-5.73c4.56-4.56 8.87-7.66 15.52-8.18 6.45-.48 12.1 2 16.61 6.53a20.74 20.74 0 0 1 6.37 16.29c-.4 6.85-3.43 11.09-8.19 15.85l-5.64 5.61zm33.1 21.37c3.71-3.71 6.29-7.34 6.45-12.74a17.58 17.58 0 0 0-18.19-17.86c-5.24.32-8.79 2.9-12.38 6.49l-2.46 2.46L184 362.51zm19.67-37.93c2.26 2.26 4.76 4.92 8.1 5.44a11.09 11.09 0 0 0 9-3.23 11.38 11.38 0 0 0 3.27-8.67c-.32-3.55-3.1-6.09-5.48-8.47L203 289l3.39-3.39 19 19c3.31 3.31 5.68 6.17 5.77 11.09a15.82 15.82 0 0 1-4.72 11.65 16.09 16.09 0 0 1-11 4.76c-5.2.12-8.31-2.34-11.77-5.81l-19-19 3.39-3.39zm29.96-54.31c-3.31-.89-6-.64-8.55 1.93s-3.1 7-.32 9.76c2.62 2.62 6.53 1.13 9.52 0l2.9-1.13c5.69-2.22 11-3.59 15.85 1.25a13.28 13.28 0 0 1-.16 19c-4.88 4.88-11.65 5.36-17.34 1.61l2.38-4.23c3.55 2.66 8.47 2.82 11.73-.44s3.75-8.75.32-12.18-7.54-2-11.65-.44l-2.66 1c-5.16 1.93-10 3.19-14.39-1.17-4.75-4.72-3.75-11.72.76-16.25a12.34 12.34 0 0 1 12.58-3.14zm23.3-35.15l5.73-5.73c4.56-4.56 8.87-7.66 15.52-8.18 6.45-.48 12.1 2 16.61 6.53a20.74 20.74 0 0 1 6.37 16.29c-.4 6.85-3.43 11.09-8.19 15.85l-5.64 5.63zm33.1 21.39c3.71-3.71 6.29-7.34 6.45-12.74a17.57 17.57 0 0 0-18.18-17.86c-5.24.32-8.79 2.9-12.38 6.49l-2.46 2.46 24.11 24.11zm-1.74-52.76l15.76-15.76 3.15 3.15L297.32 201l9 9 12-12 3.15 3.15-12 12 11.94 11.94 12.38-12.38 3.14 3.14-15.76 15.76zm45.28-33.42c-3.31-.89-6-.65-8.55 1.94s-3.1 7-.32 9.76c2.62 2.62 6.53 1.13 9.52 0l2.9-1.13c5.69-2.22 11-3.59 15.85 1.25a13.28 13.28 0 0 1-.16 19c-4.88 4.88-11.65 5.36-17.34 1.61l2.38-4.23c3.55 2.66 8.47 2.82 11.73-.44s3.75-8.75.32-12.18-7.54-2-11.65-.44l-2.66 1c-5.16 1.93-10 3.19-14.39-1.17-4.72-4.72-3.75-11.73.77-16.25a12.34 12.34 0 0 1 12.54-3.16zm40.72 8.18l-3.39 3.39L343 149l3.39-3.39zM400 122.3c4.19 4 7.14 7.86 7.58 13.87a21.24 21.24 0 0 1-6.17 16.33 22.24 22.24 0 1 1-31.25-31.65c5.32-5.32 12-7.26 19.44-6.29l-.16 4.76c-6.13-1-11.69.24-16.17 4.72-6.94 6.94-6.57 18.27.28 25.12a17.32 17.32 0 0 0 12.14 5c4.44 0 9.31-1.57 12.5-4.76 5.28-5.28 7-14.72 1.33-20.36l-9 9-3.22-3.04zm-7.42-25.44L441.13 98l-23.55-23.55 3.42-3.39 31.77 31.77-48.51-1.09 23.43 23.43-3.39 3.39zM399.72 185.54l-.64.64L389 176.06l.64-.64zm-2.51-7.96a2.88 2.88 0 0 1 .74-2.94c1.6-1.6 3-1 4.63.55l3.75 3.75-.6.6-3.73-3.78c-1.12-1.12-2.16-1.89-3.52-.54-1.56 1.56-.36 3.26.9 4.53l3.06 3.06-.6.6-6.21-6.21.6-.6zm11.2-10.26a4 4 0 0 0-3.2 1.18 3.78 3.78 0 0 0 5.33 5.36 4.22 4.22 0 0 0 1.17-3.4l.82.82a4.85 4.85 0 0 1-1.4 3.12 4.58 4.58 0 0 1-6.46-6.49 4.6 4.6 0 0 1 2.93-1.4zm9.2-5.87a4.59 4.59 0 1 1-6.5 0 4.53 4.53 0 0 1 6.5 0zm-5.87 5.9a3.73 3.73 0 1 0-.11-5.27 3.72 3.72 0 0 0 .11 5.27zm5.64-10.26a2 2 0 0 1 .4-2.28 2.23 2.23 0 0 1 .81-.51l.21.86a1.19 1.19 0 0 0-.55.31c-1.36 1.36.42 3 1.33 3.88l3.17 3.17-.6.6-6.15-6.23.6-.6zm4.04-3.43a3.93 3.93 0 0 1 1.12-3.61 4.33 4.33 0 0 1 6.35.23 4.2 4.2 0 0 1 .15 6.22 4 4 0 0 1-3.6 1.18l4.7 4.7-.6.6-9.83-9.83.6-.6zm2.08 2.16a3.4 3.4 0 0 0 5 .07 3.5 3.5 0 0 0-.19-5 3.61 3.61 0 0 0-5.19-.3c-1.56 1.57-1.12 3.74.39 5.24zm12.71-12.97a4.59 4.59 0 1 1-6.5 0 4.53 4.53 0 0 1 6.5 0zm-5.87 5.9a3.73 3.73 0 1 0-.11-5.27 3.72 3.72 0 0 0 .11 5.27zm5.66-10.26a2 2 0 0 1 .4-2.28 2.23 2.23 0 0 1 .81-.51l.21.86a1.19 1.19 0 0 0-.55.31c-1.36 1.36.42 3 1.33 3.88l3.17 3.17-.6.6-6.21-6.21.6-.6zm14-3.18l-.6.6-1.12-1.12a3.93 3.93 0 0 1-1.11 3.61 4.32 4.32 0 0 1-6.34-.21 4.21 4.21 0 0 1-.16-6.23 4 4 0 0 1 3.6-1.18l-1.07-1.07.6-.6zm-8.6 2.31a3.59 3.59 0 0 0 5.16.27c1.59-1.59 1.16-3.74-.34-5.23a3.44 3.44 0 0 0-5.05-.08 3.58 3.58 0 0 0 .19 5.04zm11.3-5.05l-.6.6-5.64-5.64-.69.69-.56-.56.69-.69-2.22-2.22.6-.6 2.22 2.22 1.09-1.09.56.56-1.09 1.09zm-.92-5.19a3.42 3.42 0 0 0 5.11.13 3.51 3.51 0 0 0 .78-3.6l.81-.21a4.43 4.43 0 1 1-7.58-2c1.88-1.88 4.5-1.49 6.27.31zM456 122a3.4 3.4 0 0 0-4.78 4.78zm9.42-4.38a3.93 3.93 0 0 1-1.11 3.61 4.32 4.32 0 0 1-6.34-.22 4.21 4.21 0 0 1-.16-6.23 4 4 0 0 1 3.6-1.18l-6-6 .6-.6 11.08 11.08-.6.6zm-2.05-2.14a3.44 3.44 0 0 0-5.05-.08 3.8 3.8 0 0 0 5.39 5.31c1.57-1.58 1.14-3.71-.35-5.22z"/></svg>